<svg xmlns="http://www.w3.org/2000/svg" viewBox="0 0 410 400"><defs><style>.a{fill:#fff;}</style></defs><title>AI-400H</title><path class="a" d="M0,0V400H410V0H0ZM241.9,279.5H213.5c-1.4,0-2.2-.3-2.6-1.5l-14-51.5H142.3l-13.5,51.3c-0.3,1.4-.9,1.7-2.6,1.7H101.1c-1.7,0-2.1-.5-1.7-2.6L147.9,107c0.9-3.1,1.4-5.8,1.7-14.2,0-1.2.5-1.7,1.4-1.7h35.9c1.2,0,1.7.3,2.1,1.7l54.3,184.5C243.6,278.7,243.3,279.5,241.9,279.5Zm57.6-2.1c0,1.4-.3,2.1-2,2.1H270.9a1.9,1.9,0,0,1-2.2-1.5V142.6h-0.2a1.7,1.7,0,0,1,1.2-2.1,1.4,1.4,0,0,1,.9,0h26.8a1.7,1.7,0,0,1,2,1.3,2.2,2.2,0,0,1,0,.8V277.5h0.1ZM283.8,121.2c-9.9,0-17.1-6.2-17.1-17.4s7.7-17.4,17.4-17.4,17.4,7,17.4,17.4S294.2,121.2,283.8,121.2Zm-114.3-2.7c4.3,20,15.5,61.4,20.3,80.3H149.3c7.2-26.5,16.2-60.3,19.8-80.3h0.4Z"/></svg>