<svg xmlns="http://www.w3.org/2000/svg" viewBox="0 0 400 400"><defs><style>.a{fill:#fff;}</style></defs><title>bootstrap-400H</title><path class="a" d="M261,249.9c0,11.8-3.5,20.9-10.3,27.3s-16.5,9.7-28.9,9.7H149.5V214h72.2c12.4,0,22,3,28.9,9.3S261,238.4,261,249.9Zm-20.3-73.7c6.5-5.6,9.8-13.6,9.8-24.1s-2.9-20.1-8.8-24.8-14.4-7.2-25.5-7.2H149.5v64.4h66.7c9.8,0.1,18-2.6,24.5-8.2h0ZM400,66.7V333.3A66.9,66.9,0,0,1,333.3,400H66.7A66.9,66.9,0,0,1,0,333.3V66.7A66.9,66.9,0,0,1,66.7,0H333.3A66.9,66.9,0,0,1,400,66.7ZM301.8,255.2c0-15.9-3.7-29.2-11.1-39.7s-18.3-17.3-32.7-20.4v-0.7c10.7-4.6,19-11.1,24.7-19.5s8.6-18.4,8.6-30.2q0-29.1-19-43.5c-12.7-9.6-29.3-14.3-50.2-14.3H108.7V320.3H215.9c15,0,28-1.7,38.9-5.1s19.8-8,26.8-13.7A51.4,51.4,0,0,0,297,280.9,66.6,66.6,0,0,0,301.8,255.2Z"/></svg>
