<svg xmlns="http://www.w3.org/2000/svg" viewBox="0 0 400 400"><defs><style>.a{fill:#fff;}</style></defs><title>Git01-400H</title><path class="a" d="M392.4,182.3L217.9,7.6a25.7,25.7,0,0,0-36.3-.2l-0.2.2L145.2,44l46,46a30.6,30.6,0,0,1,38.9,19.1A30.2,30.2,0,0,1,230,129l44.3,44.3A30.9,30.9,0,1,1,256,190.7l-41.3-41.3V258.1a29.6,29.6,0,0,1,8.1,5.9,30.7,30.7,0,1,1-43.4,0h0a33,33,0,0,1,10.1-6.7V147.4a29.7,29.7,0,0,1-10.1-6.7,30.6,30.6,0,0,1-6.6-33.6L127.3,61.7,7.6,181.4a25.7,25.7,0,0,0-.2,36.3l0.2,0.2L182.3,392.4a25.7,25.7,0,0,0,36.3.2l0.2-.2L392.6,218.6A25.6,25.6,0,0,0,392.4,182.3Z" transform="translate(0 0)"/></svg>