<svg xmlns="http://www.w3.org/2000/svg" viewBox="0 0 180 399.5"><defs><style>.a{fill:#fff;}</style></defs><title>Gulp-400H</title><path class="a" d="M88.9,315.5c40.4,0,64.4-9.9,64.4-9.9l-10.6,18.1-3.9,63.9c0,6.6-21.9,12-49,12s-49-5.4-49-12l-4.2-62L24.8,305.8S48.5,315.5,88.9,315.5ZM0.7,107.9L10.9,207c5.4-15.5,18.4-46.9,38.8-45.8,9.3,0.5,21.7,18.3,11.1,19-4.5.3-4.9-8.9-10.2-10.2s-9.2,2.2-12.6,5.6c-6.9,6.7-21.7,33.3-19.8,46.6,2.5,17,23.3-5.9,26.9-12.6,2.5-4.7,4.2-18.9,9.6-17.4s-0.5,16.1-4.4,29c-4.4,14.5-6.8,29.7-12.3,28s3.5-20.4,3.2-23.7c-5.2,4.8-14.8,17-27.1,10.9l6.3,61.3s17,13.4,68.1,13.4,68.7-13.2,68.7-13.2l8-71.3c-6.5,6.3-27,17.5-28.3,4.9-1.1-10.2,22.3-24.9,16.3-25.4-12.8.8-19.3,15.1-25.7,30.1-2.4,5.5-10.5,29-15.8,26.1s6.9-22.2,10.3-33.6c-3.9,2.9-18.5,14.2-22.2,3.6-6,5.1-18.8,7.8-17.4-5.6-3.2,5.6-10.4,13.5-19,10.2-11.3-4.3,6.6-40.3,11-38.5s-0.9,10-2.3,13.2c-3.1,7-6.6,15.8-4.2,17.6,4,3.1,15.1-11.7,15.4-12,2.1-2.7,8-20.6,12.7-18.5s-11.8,25.7-5.6,30.4c1.3,0.9,6.4-.6,9.5-3.9s1.3-7,8-23,12.7-36,17.3-34.5,0.8,11.8-.8,15.6c-7.8,17.9-21.2,47.5-14.9,45.3s9.6-2.4,15.8-9.6,5.9-19.2,10.1-18.9,3.4,4.1,2.5,7c4-4.7,19.2-14.4,22.9-4.7,4.4,11.5-21.8,28.1-15.2,27.2s16.6-7.3,21-13.2l12-108.5S166.5,118,89.2,118,0.7,107.9.7,107.9ZM180,100.8c0,7-40.3,12.6-90,12.6S0,107.7,0,100.8,40.3,88.2,90,88.2c7.3,0,14.4.1,21.1,0.4l9.4-38,47.2-50h0c1.1-1.3,4.6-.1,7.8,2.7s4.8,5.9,3.9,7.3h-0.1L134.8,57.4l-8,31.8C158.2,91.2,180,95.6,180,100.8Zm-54,3.9c0-1.1-.9-1.7-2-2l-0.8,1.2a1.1,1.1,0,0,1,1,.6c0,0.7-4.9,1-8.9,1.1s-9.2-.4-9.2-1.1a0.7,0.7,0,0,1,.5-0.4l-0.8-1.2a1.9,1.9,0,0,0-1.4,2.3,1.7,1.7,0,0,0,.6,1c1.5,1.3,5.1,1.4,10.2,1.3a32,32,0,0,0,6.9-.4C123.6,106.8,126,106.5,126,104.7Z" transform="translate(0 -0.1)"/></svg>