<svg xmlns="http://www.w3.org/2000/svg" viewBox="0 0 1772 399.7"><defs><style>.a{fill:#fff;}</style></defs><title>JQuery-400H</title><path class="a" d="M1094.7,69l-24.4,114.6L1045.9,298a6.9,6.9,0,0,1-6.4,5.1H924.8c-71.7-1.7-75.1-59.3-61.9-119.5l1-5.1L875.4,124l11.5-54.5a6.9,6.9,0,0,1,6.4-5.1h54.6a4.2,4.2,0,0,1,3,5l-8.5,40.9-8.5,40.9c-0.6,2.7-1.3,7.1-2,9.8l-1.7,9.5-1.7,8.8v0.7l-0.7,4.4a1.2,1.2,0,0,0-.3,1c-7.5,34.6-11.8,59.6,24.7,59.6h36.7a6.9,6.9,0,0,0,6.4-5.1l18.6-85.3,18.6-85.3a6.9,6.9,0,0,1,6.4-5.1H1091C1093.7,64.3,1095.7,66.6,1094.7,69ZM534.4,63.6H477.1a6.9,6.9,0,0,0-6.4,5.1l-5.4,24-5.4,24a4.1,4.1,0,0,0,3,5h58.6a6.9,6.9,0,0,0,6.4-5.1l5.1-24,5.1-24C539.1,66,537.4,63.6,534.4,63.6Zm-16.8,74.5H460.2a6.9,6.9,0,0,0-6.4,5.1L445.6,179l-7.8,34.7-0.4,1.7c-0.7,2.7-1.6,7.1-2.3,9.7l-7.8,36.5-7.4,36.2c-0.7,2.7-1.7,7.4-2.7,10.2,0,0-10.8,31.8-28.8,31.5H386c-8.8,0-15.6-.3-15.6-0.3a6.9,6.9,0,0,0-6.4,5.1l-6.1,25-6.1,25a3.8,3.8,0,0,0,2.5,4.9,4.4,4.4,0,0,0,1.6.2l47,0.3c45,0,69-25,84.3-96.8l17.9-82.6,16.6-77.5C522.4,140.1,520.7,138.1,517.6,138.1ZM1577,118.4l-2.4-9.8-2.4-10.2-1.4-5.1c-4.7-18.3-18.3-28.8-48.1-28.8h-137a6.9,6.9,0,0,0-6.4,5.1l-2,10.2-2.4,11.8-0.7,3.4-2.2,10.3,1.2-6.6L1374,95l0.7-3.4h-0.1a67.7,67.7,0,0,0-1.5,7.3l-8.1,38-12.7,59.3,12.3-57.5-16.7,78.6-16.1,75a23.6,23.6,0,0,0-.4,2.8l-0.2.7,0.3-3.1,20.6-96.1-21.7,101.2a4.1,4.1,0,0,0,3,5h6.5a23.3,23.3,0,0,1-4.9-.6V302a20.6,20.6,0,0,0,5.2.8h43.3a51.8,51.8,0,0,0,7.8-.9h0a24.7,24.7,0,0,1-8.1,1h5.4a6.9,6.9,0,0,0,6.4-5.1l0.7-3.7,0.3-1.4,7.8-38.2,7.8-38.2,1-5.1,9.5-43.7,8.1-38.6a6.9,6.9,0,0,1,6.4-5.1h136.4a5.1,5.1,0,0,0,2.4-1A3.9,3.9,0,0,0,1577,118.4Zm175.6-89,16.6,0.3c2.7,0,3.7,1.7,2,4.1L1614.7,242.1a27.4,27.4,0,0,0-4.4,9.1l-12.2,47a6.9,6.9,0,0,1-6.4,5.1h-61.3a3,3,0,0,1-1.6-.2,3.9,3.9,0,0,1-2.5-4.9l12.2-47c1-2.8.7-7.5,0-10.2l-27.8-97.5c-1-2.7.7-5.1,3.7-5.1h61.9a6.9,6.9,0,0,1,6.4,5.1l7.1,31.1c0.7,2.7,2.4,3.1,4.1.7l96.5-141.5a10.9,10.9,0,0,1,8.1-4.4h54.1ZM835.2,130.3c-6.5,39.6-34.9,108.3-34.9,108.3h0a6.1,6.1,0,0,0-.7,1.4v0.2a3.6,3.6,0,0,0,3.7,3.5h25a3,3,0,0,1,1.6.2,3.9,3.9,0,0,1,2.5,4.9l-13.2,49.7a6.9,6.9,0,0,1-6.4,5.1l-74.8.3-80.2.3c-101.5.7-123.8-70.4-106.9-150.6S611.4,0,714.3,0,843.6,77.2,835.2,130.3ZM735,236.6l11.1-40.3,11.5-39.9,1.4-5.1c14.9-49.8,2.7-92.7-58.9-88-44.7,3.4-66.7,37.9-77.5,90.4s0,88,45.7,88h59.9A7.3,7.3,0,0,0,735,236.6Zm581-34.9c0,0.4-.3,1.1-0.3,1.4a6,6,0,0,1-5.4,3.7H1163.8c-2.2,1-4.2,4.3-4.5,6.6v0.5h0.1a2.8,2.8,0,0,0-.1.8c-1,23.3,11.4,31.4,45,31.4h93.8v-0.4a3.8,3.8,0,0,1,4.1,2.8,4.2,4.2,0,0,1,.3,2.7l-5.1,24.7-0.7,4.1-4.1,20.6a7.2,7.2,0,0,1-6.4,5.1c-11.1,0-38.5.3-66.3,0.3h-29.4c-104.6,0-105.9-60.3-92.4-122.2s37.6-123.2,138.4-123.2h0C1331.9,60.6,1338.3,117.4,1316,201.7Zm-56.6-50.2c2.1-17.9-4-33.8-36.5-33.8-28.7,0-44,13.2-51.4,33.2a3.2,3.2,0,0,0-.3,1.4v0.6c-0.4,2.4,1,4.1,3.7,4.1h78.5a6.3,6.3,0,0,0,6-5.5h0ZM42.9,74.8C17.8,122.8,29,181.4,60.2,223.7c1.1,1.6,2.2,3.2,3.4,4.7a16,16,0,0,0,1,1.4l3,3.7c0.3,0.4-.4-0.3,1,1.4l4.1,4.7,0.3,0.3a56.2,56.2,0,0,0,4.1,4.4l1.4,1.4a27.3,27.3,0,0,0,3.4,3.4,4.7,4.7,0,0,0,1.4,1.4l4.7,4.1,0.3,0.3c1.4,1.3,3,2.3,4.4,3.7a7.5,7.5,0,0,0,1.7,1.4,28.8,28.8,0,0,0,3.4,2.7c0.7,0.4,1,1.1,1.7,1.4a36.2,36.2,0,0,1,4.1,2.7l1.4,1,4.1,2.7,1.7,1a31.7,31.7,0,0,0,5.8,3.7,2.7,2.7,0,0,1,1.4.7l4.4,2.4,2.4,1.4,3.7,2c0.4,0.4,1.1.4,1.4,0.7a20.8,20.8,0,0,0,4.7,2.4l1,0.3c2.1,0.7,3.8,1.7,5.8,2.4a6.1,6.1,0,0,1,1.4.7l5.4,2a0.9,0.9,0,0,0,.7.3l6.1,2c0.7,0,1,.3,1.7.3a42.4,42.4,0,0,0,6.1,1.7c56.2,12.9,115.1,1.4,147.6-41.6,0,0-39.6,106.9-176,81.9a35.5,35.5,0,0,1-6.4-1.7l-1.4-.3-6.1-2a0.9,0.9,0,0,0-.7-0.3l-5.4-2c-0.4-.4-1.1-0.4-1.4-0.7-2.1-.7-3.8-1.7-5.8-2.4-0.3,0,.7.4-1-0.3a36.5,36.5,0,0,1-5.1-2.4,2.3,2.3,0,0,0-1.4-.7c-0.4,0,.3.4-0.7-0.3s-2-1-3-1.7a7.2,7.2,0,0,0-2.4-1.4l-4.4-2.4-1.7-1-5.8-3.7-1.7-1c-1.3-.7-2.3-1.7-3.7-2.4l-0.3-.3-1.4-1a31.8,31.8,0,0,0-3.7-2.7l-1.7-1.4a22,22,0,0,0-3.4-2.7c-0.7-.4-0.3-0.4-1.7-1.4s-4.1-3-4.1-3.4-0.4-.4-0.7-0.7h0l-4.4-4.1L53.5,289l-3.4-3.4-1.4-1.4c-1.4-1.4-2.7-3-4.1-4.4v-0.3h0l-4.1-4.7a16,16,0,0,0-1-1.4c-1-1.3-2-2.3-3-3.7a4.7,4.7,0,0,1-1.4-1.4l-3-4.1c-0.4,0-.4-0.4-0.7-0.7h0c-1-1.7-3.1-4.4-3.4-5.1s-0.3-.4-1-1.7-1.7-2.3-2.4-3.7l-1-2c-0.6-1-1.3-2.4-2-3.4l-1-2a6.1,6.1,0,0,1-.7-1l-1-2c-0.7-1-1-2-1.7-3-21.7-43-25.1-95.8,3-136.4m104.1-58c-13.5,23-14.9,52.1-7.4,76.5s23,45.7,43,61.3l1.4,1,5.8,4.1a9.5,9.5,0,0,1,2.7,1.7,4.5,4.5,0,0,1,1.4,1,36.2,36.2,0,0,0,4.1,2.7,0.9,0.9,0,0,0,.7.3l3.4,2a3.6,3.6,0,0,1,1.7.7c1,0.4,1.7,1.1,2.7,1.4a45.3,45.3,0,0,0,5.4,2.7,6.1,6.1,0,0,1,1.4.7c1.4,0.7,3.8,1.3,4.4,1.7a5.3,5.3,0,0,0,2,.7c1.4,0.4,2.7,1.1,4.1,1.4l1.7,0.7c2,0.7,4.1,1,6.1,1.7,45.3,11.8,87.6-3.4,109.6-34.9,0,0-24.1,81.2-128.3,63.6a42.4,42.4,0,0,1-6.1-1.7l-1.7-.7a23.8,23.8,0,0,1-4.1-1.4,11.8,11.8,0,0,0-2-.7,23.5,23.5,0,0,1-4.4-1.7,1.7,1.7,0,0,1-1.4-.3c-1.7-1-3.7-1.7-5.4-2.7h0a0.3,0.3,0,0,0-.3-0.3,11,11,0,0,1-2.7-1.4c-0.4-.4-1.1-0.4-1.4-0.7l-3.7-2a4.9,4.9,0,0,1-.7-0.3,39.9,39.9,0,0,1-4.4-2.7,1.9,1.9,0,0,1-1.4-.7l-2.7-1.7h0l-5.8-4.1a4.5,4.5,0,0,1-1.4-1,57.5,57.5,0,0,1-5.4-4.4h-0.3c-1.7-1.4-3-3-4.7-4.4l-1.4-1.4-4.7-4.7c-4.1-3.7-7.5-8.8-10.5-13.2s-6.4-10.1-9.1-15.2C88.6,137.7,87.6,98.4,107.9,69m82.5-37.9c-16.6,30.1-1,67,24.7,86.3a80,80,0,0,0,14.2,8.8,72.7,72.7,0,0,0,8.1,3.4l6.8,2C273,138.7,296,134,309.9,114c-4.4,6.1-20,47.1-78.2,35.9l-3.7-1-1-.3-2.7-1c-21-7.8-39.2-25.1-47.7-44.7s-7.5-41.6,4.7-59.2" transform="translate(0)"/></svg>
