<svg xmlns="http://www.w3.org/2000/svg" viewBox="0 0 318.5 307.5"><defs><style>.a{fill:#fff;}</style></defs><title>JQueryLogo-400H</title><path class="a" d="M42.9,74.8C17.8,122.8,29,181.4,60.2,223.7c1.1,1.6,2.2,3.2,3.4,4.7l1,1.4,3,3.7c0.3,0.4-.4-0.3,1,1.4l4.1,4.7,0.3,0.3a56.2,56.2,0,0,0,4.1,4.4l1.4,1.4a27.3,27.3,0,0,0,3.4,3.4,4.7,4.7,0,0,0,1.4,1.4l4.7,4.1,0.3,0.3c1.4,1.3,3,2.3,4.4,3.7a7.5,7.5,0,0,0,1.7,1.4,28.8,28.8,0,0,0,3.4,2.7c0.7,0.4,1,1.1,1.7,1.4a36.2,36.2,0,0,1,4.1,2.7l1.4,1,4.1,2.7,1.7,1a31.7,31.7,0,0,0,5.8,3.7,2.7,2.7,0,0,1,1.4.7l4.4,2.4,2.4,1.4,3.7,2c0.4,0.4,1.1.4,1.4,0.7a20.8,20.8,0,0,0,4.7,2.4l1,0.3c2.1,0.7,3.8,1.7,5.8,2.4l1.4,0.7,5.4,2a0.9,0.9,0,0,0,.7.3l6.1,2c0.7,0,1,.3,1.7.3a42.4,42.4,0,0,0,6.1,1.7c56.2,12.9,115.1,1.4,147.6-41.6,0,0-39.6,106.9-176,81.9a35.5,35.5,0,0,1-6.4-1.7l-1.4-.3-6.1-2a0.9,0.9,0,0,0-.7-0.3l-5.4-2c-0.4-.4-1.1-0.4-1.4-0.7-2.1-.7-3.8-1.7-5.8-2.4-0.3,0,.7.4-1-0.3a36.5,36.5,0,0,1-5.1-2.4,2.3,2.3,0,0,0-1.4-.7c-0.4,0,.3.4-0.7-0.3s-2-1-3-1.7a7.2,7.2,0,0,0-2.4-1.4l-4.4-2.4-1.7-1-5.8-3.7-1.7-1c-1.3-.7-2.3-1.7-3.7-2.4l-0.3-.3-1.4-1a31.8,31.8,0,0,0-3.7-2.7l-1.7-1.4a22,22,0,0,0-3.4-2.7c-0.7-.4-0.3-0.4-1.7-1.4s-4.1-3-4.1-3.4-0.4-.4-0.7-0.7h0l-4.4-4.1L53.5,289l-3.4-3.4-1.4-1.4c-1.4-1.4-2.7-3-4.1-4.4v-0.3h0l-4.1-4.7-1-1.4c-1-1.3-2-2.3-3-3.7a4.7,4.7,0,0,1-1.4-1.4l-3-4.1c-0.4,0-.4-0.4-0.7-0.7h0c-1-1.7-3.1-4.4-3.4-5.1s-0.3-.4-1-1.7-1.7-2.3-2.4-3.7l-1-2c-0.6-1-1.3-2.4-2-3.4l-1-2-0.7-1-1-2c-0.7-1-1-2-1.7-3-21.7-43-25.1-95.8,3-136.4m104.1-58c-13.5,23-14.9,52.1-7.4,76.5s23,45.7,43,61.3l1.4,1,5.8,4.1a9.5,9.5,0,0,1,2.7,1.7,4.5,4.5,0,0,1,1.4,1,36.2,36.2,0,0,0,4.1,2.7,0.9,0.9,0,0,0,.7.3l3.4,2a3.6,3.6,0,0,1,1.7.7c1,0.4,1.7,1.1,2.7,1.4a45.3,45.3,0,0,0,5.4,2.7l1.4,0.7c1.4,0.7,3.8,1.3,4.4,1.7a5.3,5.3,0,0,0,2,.7c1.4,0.4,2.7,1.1,4.1,1.4l1.7,0.7c2,0.7,4.1,1,6.1,1.7,45.3,11.8,87.6-3.4,109.6-34.9,0,0-24.1,81.2-128.3,63.6a42.4,42.4,0,0,1-6.1-1.7l-1.7-.7a23.8,23.8,0,0,1-4.1-1.4l-2-.7a23.5,23.5,0,0,1-4.4-1.7,1.7,1.7,0,0,1-1.4-.3c-1.7-1-3.7-1.7-5.4-2.7h0a0.3,0.3,0,0,0-.3-0.3h0a11,11,0,0,1-2.7-1.4c-0.4-.4-1.1-0.4-1.4-0.7l-3.7-2-0.7-.3a39.9,39.9,0,0,1-4.4-2.7,1.9,1.9,0,0,1-1.4-.7l-2.7-1.7h0l-5.8-4.1a4.5,4.5,0,0,1-1.4-1,57.5,57.5,0,0,1-5.4-4.4h-0.3c-1.7-1.4-3-3-4.7-4.4l-1.4-1.4-4.7-4.7c-4.1-3.7-7.5-8.8-10.5-13.2a169.6,169.6,0,0,1-9.1-15.2C88.6,137.7,87.6,98.4,107.9,69m82.5-37.9c-16.6,30.1-1,67,24.7,86.3a80,80,0,0,0,14.2,8.8,72.7,72.7,0,0,0,8.1,3.4l6.8,2C273,138.7,296,134,309.9,114c-4.4,6.1-20,47.1-78.2,35.9l-3.7-1-1-.3-2.7-1c-21-7.8-39.2-25.1-47.7-44.7s-7.5-41.6,4.7-59.2" transform="translate(0 -31.1)"/></svg>