<svg xmlns="http://www.w3.org/2000/svg" viewBox="0 0 400 400"><defs><style>.a{fill:#fff;}</style></defs><title>JS-400H</title><path class="a" d="M0,0V400H400V0H0ZM217.8,312c0,38.9-22.8,56.6-56.1,56.6-30.1,0-47.6-15.6-56.4-34.3l30.6-18.5c5.9,10.5,11.3,19.4,24.2,19.4s20.1-4.8,20.1-23.6V183.7h37.6V312h0Zm88.8,56.7c-34.9,0-57.5-16.6-68.5-38.4l30.5-17.8c8.1,13.1,18.5,22.9,37.1,22.9,15.6,0,25.5-7.8,25.5-18.5,0-12.9-10.2-17.5-27.4-25l-9.4-4.1c-27.1-11.6-45.1-26-45.1-56.6,0-28.2,21.5-49.7,55-49.7,23.9,0,41.1,8.3,53.5,30.1l-29.3,18.8c-6.4-11.6-13.4-16.1-24.2-16.1s-18,7-18,16.1c0,11.3,7,15.9,23.1,22.9l9.4,4c31.9,13.7,50,27.7,50,59,0.2,33.9-26.5,52.4-62.1,52.4h-0.1Z"/></svg>
