<svg xmlns="http://www.w3.org/2000/svg" viewBox="0 0 1404 400.1"><defs><style>.a{fill:#fff;}</style></defs><title>MongoDB-400H</title><path class="a" d="M115.9,327.7v0.2l-0.5.2a129,129,0,0,1-12.8,10.4A25.7,25.7,0,0,0,97.2,349c-3,13.4-.8,41-0.8,41l-10.5-3.5s0.7-28.5-6.4-45.1c-9.9-7.2-83.8-64.2-79.3-160,5-102.5,65.3-153,77-162.2C84.8,11.1,85.1,8,85.7,0a6.5,6.5,0,0,1,.4,1.3V1.1s5.8,14.2,11.5,22.2c5.2,11.3,53.6,41,74.1,131.4C187.7,248.1,140.5,305.1,115.9,327.7Zm932.4-165.2c5.4,0.6,10.8,1.5,16.1,2.6,7.5,1.7,11.2,4,12.1,12.8,0.6,10.5.3,43.7,0.3,60.7,0,23.8.3,44.8-.6,62.4-0.6,9.4-1.8,12-7,14.2-3.1,1.3-4.9,1.5-11.6,2.2-2,.2-5.3,9.3-4.1,11.3h0.3c24.7,0,54.3.9,71.5,0.9,32.4,0,55.1-7.3,72.7-20.4s35-34.6,35-72.9c0-26.9-9.8-49.1-28.1-64.9-15.2-13-36.5-19.8-61.7-19.8-30.2,0-41.3.9-57.4,0.9-8.6,0-27.2-.8-32.1-0.8-1.5,1.5-5.9,9.1-5.3,10.8h-0.1Zm56.9,134.7c-0.6-4-.6-36.9-0.6-60.4s0-61.8.6-66.9c0-1.1,1.7-3.4,2.6-4,3.2-1.4,8.6-1.7,14.1-1.7,18.7,0,35,3.1,47.7,11.1,22.4,13.6,33.3,36.9,33.3,65.5s-9.2,48.5-22.7,60.7-26.7,14.5-40.5,14.5c-10.6,0-22.7-2-28.7-6.8-3.8-2.6-5.5-8.5-5.8-11.9h0Zm147.6-134.7c5.7,0.9,12.9,1.7,17.2,2.6s8.3,4,8.6,11.9c0.3,10.2,0,30.9,0,61.5,0,22.4,0,53.9-.6,62.7s-1.7,12.4-8.6,14.1a51.8,51.8,0,0,1-13,2c-1.7,1.4-5.6,10.5-3.6,11.3,19.2-.3,53.9,1.1,66.8,1.1,16.9,0,33.6-2,47.1-7.9,22.1-9.6,37.3-25,37.3-49.4s-18.7-38-39.9-43.4c-0.9-.3-0.9-0.9,0-1.1,14.9-6.2,26.4-19.3,26.4-35.5,0-32.9-30.4-40.8-52.6-40.8-17.8,0-32.7.6-51.1,0.6s-27.2-.9-29.8-0.9-5.7,9.8-4.2,11.2h0ZM1336.9,316c-7.2,0-17.5-.6-22.1-3.1s-7.8-8.8-8.3-13.6c-0.9-11.3-.6-40-0.6-57.9,0-.6.9-1.1,1.7-1.4,2.6-.6,13.2-0.3,14.6-0.3,33.6,0,52,14.2,52,39.1s-17.5,37.2-37.3,37.2h0Zm-17.5-151.2c25.6,0,42.8,9.4,42.8,34,0,10.8-4.3,20.7-13.5,25.2-3.4,1.7-9.8,3.1-20.7,3.1-7.8,0-16.9-.3-20.7-0.6a1.7,1.7,0,0,1-1.4-1.4c0-18.4.3-45.1,0.6-55.3,0-1.4,1.4-4.3,2.6-4.5a71.1,71.1,0,0,1,10.3-.5h0ZM229.8,329.5l9.2-.3c5-.2,11.3-0.5,20.2-0.5s14.3,0.3,19.7.5l9.1,0.3c1-1.9,1.4-8,.8-9.6l-4.6-.8-5.9-1.1c-5.7-1.3-6.8-4.9-7-7.9-0.4-9.8-.4-32.6-0.3-50.8v-15c0-2.3,1-4.8,2.4-5.8,8.1-6.1,18-9.8,25.8-9.8,13.4,0,21.7,7.4,24.7,22,1.8,9.1,1.1,45.5.3,58.1-0.3,5.4-1.9,7.8-6.2,9.1-2.5.6-5.1,1.1-8.1,1.6l-3.5.6c-0.5.5-.9,2.2-0.9,4.6a10.2,10.2,0,0,0,.9,4.9l11.3-.2,15.9-.3c12.9,0,21.8.3,30.5,0.6a5.1,5.1,0,0,0,1-2.4c0.6-2.8.6-6,.1-7.1a71,71,0,0,1-8-1.7l-3.8-.9c-2.7-1.1-6-2.4-6-7.9-0.2-8.1-.1-18.9-0.1-30.2,0-5.6.1-11.3,0.1-16.6,0-9.3,0-15.5-1.1-20.8v-0.2a3.6,3.6,0,0,1,.9-2.4c9.6-7.3,19.6-9.8,25.8-9.8,16.8,0,24.4,11.9,25.9,22s0.7,51.1.6,55.8c-0.3,6.6-1.7,8.8-6.7,10.5a77,77,0,0,1-9.5,2.2c-0.7,1.3-.5,7.6.1,9.5,7.8-.5,16-0.8,31.6-0.8,7.8,0,14.5.3,19.4,0.6l6.4,0.3c1-1.3,2-7.9,1.5-9.6h-0.4c-6.3-1.1-11.2-1.9-14.7-3.6s-4.6-4.6-4.6-6c0-5.7.1-13.9,0.1-22.7s0.2-20.7.2-29.2c0-29.4-14-47-37.6-47-9.9,0-24.8,6.8-39.8,18.1a2.1,2.1,0,0,1-1.6.8,2.1,2.1,0,0,1-1.7-1c-7.4-12.1-17-18-29.4-18-7.5,0-22.1,4.6-38.4,17.3a2.2,2.2,0,0,1-3,.1,2,2,0,0,1-.6-1.3c0-3.2.3-6.5,0.5-9.3l0.2-2.8a5.5,5.5,0,0,0-1.2-4.1c-8.6,3.9-30.4,9.1-38.7,10-3.1.6-4.6,2.4-4.7,3.8s1.3,2.7,3.7,3.5a55.9,55.9,0,0,1,15.2,6.7c2.7,2.1,2.7,5,2.7,7.2v0.6c0.3,20.2.3,48.9-.6,64.2-0.3,6.5-2.2,9.2-7.3,10.5a101.9,101.9,0,0,1-11,2.2,7.3,7.3,0,0,0-.9,3.8,12.4,12.4,0,0,0,.9,5.7h0Zm289.5,2.6c12,0,26.5-5.5,34.8-10.6,17.4-11.4,26.6-29.5,26.6-52.5,0-33.9-23-57.5-55.9-57.5-12.8,0-27,4.2-38.8,11.5-16.7,11.2-25.2,27.4-25.2,48,0,29.6,15.4,61.2,58.5,61.2h0Zm-4.6-108.6c24.3,0,40.6,22,40.6,54.8,0,17.1-3.9,29.3-11.2,35.3-4.8,4.2-10.5,6.2-17.6,6.2-23.9,0-40.6-23.2-40.6-56.5,0-17.8,5.1-29.9,15-35.9a24.5,24.5,0,0,1,13.7-3.9h0.1ZM966.1,332c12,0,26.5-5.5,34.8-10.6,17.4-11.3,26.6-29.5,26.6-52.5,0-33.9-23-57.5-55.9-57.5-12.8,0-27,4.2-38.8,11.5-16.7,11.2-25.2,27.4-25.2,48,0,29.6,15.4,61.2,58.5,61.2h0Zm-4.6-108.6c24.3,0,40.6,22,40.6,54.8,0,17.1-3.9,29.3-11.2,35.3-4.8,4.2-10.5,6.2-17.6,6.2-23.9,0-40.6-23.2-40.6-56.5,0-17.8,5.1-29.9,15-35.9a24.6,24.6,0,0,1,13.8-3.9h0ZM817.1,400.1a78.3,78.3,0,0,0,33.7-7.6c22.3-10.8,35.7-28.4,35.7-47.1a28.3,28.3,0,0,0-18.9-27.2c-8.5-2.9-26.5-4.1-40.9-5.1l-7.1-.5c-10.9-.8-13.2-5.4-13.2-9.1s5.1-6.9,7-7.4h0.3l3.4-.2,3.4-.2h0c11.2-2,21.1-5.1,29.6-11.5s17.2-15.9,17.2-36.7a79.5,79.5,0,0,0-1.6-10.9l-0.2-.5a1.9,1.9,0,0,1-.2-1.8l1.1-.4a37.5,37.5,0,0,0,6.7,1.1h1.3c4.4,0,9-2,11-4.8a19.4,19.4,0,0,0,3.2-11.7,14.8,14.8,0,0,0-.9-5.1c-3.7,3.6-8,6.7-17.8,6.7a43.7,43.7,0,0,1-16.4-2.6c-9.2-3.4-15.9-5.9-27.8-6.2H825c-11.5,0-29.3,6.7-36.4,12.3a38.7,38.7,0,0,0-16.3,31.9c0,19.9,8.9,33,26.5,38.9a1.9,1.9,0,0,1,.7,2.6h0l-0.2.3c-2.6,2.2-7.4,5-11.6,7.5l-7.2,4.4c-1.7,1.1-1.8,3-1.5,4.6v0.6c1.1,4.1,4.7,11.5,16.6,16.1a1.3,1.3,0,0,1,.9,1.5,1.1,1.1,0,0,1-.8.8c-14.4,9.9-20.7,15.7-23.4,18.7a19.7,19.7,0,0,0-5.1,12.8c0,7.3,4.2,17.9,13.4,25.1S801.3,400,816.8,400h0.3Zm-1.7-65.8c15.6,0,28.3,1.5,35.9,4.3,9.9,3.6,14.7,10,14.7,19.6,0,13.7-11.6,27.6-37.4,27.6-13.1,0-23.1-3-30.5-9.3s-8.9-11-8.9-18.3,4.9-14.5,15.4-21.2a22.5,22.5,0,0,1,10.8-2.7h0Zm1.7-112c17.3,0,27.6,12.6,27.6,33.8,0,9.7-3.2,18.9-8,23.3-3.2,3.5-9.7,5.1-13.3,5.1-20.8,0-28.2-19.1-28.2-35.5s8.6-26.7,21.9-26.7h0ZM747,319.1c-6.3-.9-10.9-1.7-16.4-4.3a7,7,0,0,1-2-4c-0.6-8.8-.6-34.3-0.6-51.1,0-13.6-2.3-25.5-8-34a35.7,35.7,0,0,0-29.3-15.3c-12.6,0-26.1,7.7-38.5,18.2-0.3.3-2.2,2.1-2.1-.7s0.5-8.5.7-12a6.2,6.2,0,0,0-1.9-5.3c-8,4-30.6,9.3-39,10.2-6.1,1.2-8.1,7-1.1,9.1h0a54.2,54.2,0,0,1,14.8,6.5c2.6,2,2.3,4.8,2.3,7.1,0.3,19,.3,48.2-0.6,64.1-0.3,6.2-2,8.5-6.6,9.6h0.4a94.3,94.3,0,0,1-10.6,2c-1.4,1.4-1.4,9.6,0,11.3,2.9,0,17.5-.9,29.6-0.9,16.7,0,25.3.9,29.6,0.9,1.7-2,2.3-9.6,1.1-11.3a67.1,67.1,0,0,1-11.8-1.7c-4.6-1.1-5.7-3.4-6-8.5-0.6-13.3-.6-41.7-0.6-61,0-5.4,1.4-7.9,3.2-9.4,5.7-5.1,15.2-8.5,23.5-8.5s13.5,2.6,17.5,6,7.5,11.1,8,15.9c1.1,10.8.9,32.3,0.9,51.1,0,10.2-.9,12.8-4.6,13.9-1.7.9-6.3,1.7-11.8,2.3-1.7,1.7-1.1,9.6,0,11.3,7.5,0,16.1-.9,28.7-0.9,15.8,0,25.8.9,29.9,0.9,1.9-2.2,2.5-9.6,1.3-11.6h0Z" transform="translate(0)"/></svg>