<svg xmlns="http://www.w3.org/2000/svg" viewBox="0 0 350.4 400"><defs><style>.a{fill:#fff;}</style></defs><title>NodeSass-400H</title><path class="a" d="M107.6,244.8c-6.4,4-15.9,10.4-23.3,17.4-12.2,11.5-14.7,27.4-8.3,31.1s19.8-.7,29.7-11.5A44,44,0,0,0,116,239.7l-1.5.9h0l-0.7.4-6.1,3.7h-0.1Zm178.7-5.2c-3.6,7.8-3.8,10.3-2.7,11.1,5.2-1.9,13.9-6.4,13.9-18.5a19.1,19.1,0,0,0-1-5.8,43.7,43.7,0,0,0-10.2,13.2h0Zm56.1-23.7c-14-1.6-24.9.3-33.3,3.9a42,42,0,0,1,2.9,12.6c0.4,9.4-6.1,16.3-12.8,21.3a41.2,41.2,0,0,1-11.6,6c-2.8,1.2-6.5,2.4-9.2,1.9-5.8-1.2-8.9-6.4-5-17.8,2.1-6.2,8.3-15.6,18.3-23.7-2.3-4.7-4.8-9.5-6.1-13.8a112.2,112.2,0,0,1-3.3-13.9A285,285,0,0,1,263.4,225l-1.8,2.7a44.5,44.5,0,0,1,4,15.1,24.1,24.1,0,0,1-10.4,21.4,43.5,43.5,0,0,1-10.9,5.7,36.8,36.8,0,0,1-12.7,2.9c-3.4.2-6.6,0-8.4-1.4s-2.8-4.2-1.5-7.4,9.3-12,16.1-20.2c1.9-2.3,3.7-4.6,5.3-6.7h0l3.3-4.4c-2.5-5.4-5.7-11-7.2-16.1a112.2,112.2,0,0,1-3.3-13.9s-8.3,21.4-17,38.5c-6.7,13.2-11.2,21.2-13.2,24.8h0l-0.8,1.3-0.4.7h0c-2.3,3.3-7.3,9.9-12.4,9.9-13.8,0-8.7-28.1-8.7-28.1s-4,10.4-8.6,19.3c-3.7,7.3-7.1,13.4-14.5,13.4-2.1,0-5.5-.1-8.3-2.7-6.3-6-11.2-21.3-10.2-33.2,0.8-10.1,2.4-17.1,4.5-22.9l-12.6,7.1-6.9,4,0.2,0.4c5.7,11,7.2,35-5.2,53.5s-35.4,29.7-57.9,23.5c-7.2-2-18.2-17-8.7-37.9,8.3-18.4,41.6-35.8,50.4-40.2l2.4-1.3c-17.5-15.3-61.1-35.9-67.2-67.6-1.7-8.9,2.5-30.3,28.7-54.8,22-20.6,52.7-36.4,81-46.5C198.1,47,248.3,57,256.1,87.3s-18.3,65.5-51.4,78.3c-29.6,11.4-54,9.6-64.1,6.3s-18.1-11.3-19.8-15.5c-0.6-1.7-1.7-4.5,0-5.4s1.5-.5,4.4,2.7,13.7,11.1,34.5,8.8c54.7-6.1,87.6-48.6,77.2-71.5-7.3-16-49.4-23.2-102.1,3C70.5,126.1,67,152.5,66.5,162.5c-1.5,27.6,34,42.1,53.3,62.7l0.7,0.8,11.1-6.1,23.1-12.7c6.8-9.8,20.5-20.7,30.4-20.7,15.9,0,10.4,22.8,10.4,22.8a1.8,1.8,0,0,1,.8-1.1c0.5-.1,2.2-3,7.1-1.2s3.9,5.4,3.9,5.7-5.9,21-8.4,34c-1.2,6.2-.5,10.7-0.2,10.7s1.5-1.6,2.4-3.3h0l1.9-3.6,0.2-.5h0c1.4-2.7,3.3-6.7,5.6-11.6,4.4-9.7,21.2-47.2,22.6-51.3s2.2-8.4,2.9-10.3,6.6-3.2,13.6-3.2,7.6,3,7.7,3.6-3.3,8.8-4.1,14.6,0,8.7.6,13.6c0.4,3.2,2.4,7.2,4.8,11.8,7.2-11.7,19.8-34.2,21-40.5a75.2,75.2,0,0,1,2.9-10.3c0.7-1.8,6.6-3.2,13.6-3.2s7.6,3,7.7,3.6-3.3,8.8-4.1,14.6,0,8.7.6,13.6,3.8,9.8,7,16.2a69.3,69.3,0,0,1,31-7.3c5,0,10.8.5,13.8,1.4v-96a18.8,18.8,0,0,0-9.3-16.4L184,2.5a18.8,18.8,0,0,0-18.9,0L9,93c-5.9,3.4-9,9.6-9,16.4V290.5c0,6.8,3.1,13,9,16.4l156.4,90.5a18.6,18.6,0,0,0,18.8,0l156.5-90.5a18.8,18.8,0,0,0,9.3-16.4V217.3a49.7,49.7,0,0,0-7.7-1.4h0.1Zm-168.5-9.5c-3.4,3.8-9.1,13.5-11.8,21.6-5.3,16.1-3,32.5.8,33.5s11.6-20.4,15.1-28.8c2.2-5.3,10.6-28.7,8.7-31.8s-7.4-.5-12.8,5.5h0Zm60.9,54.3s-1.1,1-.6,1.3,2-.1,3.4-0.9c4.1-2.6,13.4-9.1,13.5-18.7v-0.8l-5.9,7.5c-2.9,3.6-10.4,11.7-10.4,11.7h0Z" transform="translate(0 0.1)"/></svg>