<svg xmlns="http://www.w3.org/2000/svg" viewBox="0 0 410 400"><defs><style>.a{fill:#fff;}</style></defs><title>photoshop-400H</title><path class="a" d="M0,0V400H410V0H0ZM142.6,212c-6.5,0-8.7-.3-13.3-0.3v65.6a1.8,1.8,0,0,1-1.2,2.1,1.1,1.1,0,0,1-.8,0H101.1a1.7,1.7,0,0,1-2.1-1.2,1.4,1.4,0,0,1,0-.9V93.7h0c0-1.2,2.4-2.1,3.8-2.1,10.9-.5,27.2-0.9,44.1-0.9,47.3,0,65.8,26,65.8,59.1C212.7,193.4,181.3,212,142.6,212Zm123,70.3c-14.9,0-27.7-3.1-35-7.4-1.2-.5-1.4-1.4-1.4-2.7V247.1c0-1.7.9-2.2,2.1-1.4a63.1,63.1,0,0,0,34.3,10.1c13.5,0,19.1-5.6,19.1-13.3,0-6.2-3.9-11.6-21.2-20.5-24.3-11.6-34.3-23.4-34.3-43.1,0-22.1,17.3-40.3,47.1-40.3,14.7,0,24.9,2.2,30.6,4.8a3.7,3.7,0,0,1,1.7,3.4v23.4c0,1.4-.9,2.2-2.6,1.7-7.5-4.8-18.6-7.7-29.7-7.7-13.5,0-18.1,6.8-18.1,12.5s3.1,10.4,21.2,19.8c26.8,13,35.2,25.5,35.2,43.8C314.7,267.6,293.8,282.3,265.6,282.3ZM182.1,150.6c0,27.2-18.8,34.2-38.8,34.2-6.8,0-9.9,0-13.8-.3h0v-66c3.1-.2,9.6-0.5,16.4-0.5C168.6,118,182.1,128.9,182.1,150.6Z"/></svg>