<svg xmlns="http://www.w3.org/2000/svg" viewBox="0 0 450.1 400.1"><defs><style>.a{fill:#fff;}</style></defs><title>React-400H</title><path class="a" d="M225,159.5a40.1,40.1,0,1,1-40.2,40.1A40.2,40.2,0,0,1,225,159.5Zm201.9,0.1c-13.9-11.6-33.6-22-56.9-30-4.7-1.6-9.5-3.1-14.5-4.6,0.8-3.3,1.5-6.6,2.2-9.9C368.9,61,360.9,18.8,337,5c-11.8-6.8-27.7-6.8-46.3,0-17,6.2-35.8,18.1-54.4,34.2-3.7,3.3-7.5,6.7-11.2,10.3l-7.3-6.7C176.4,6.1,135.9-8.2,112,5.7c-11.7,6.8-19.7,20.6-23.1,40.1-3.1,17.8-2.2,40,2.5,64.2,0.9,4.9,2,9.8,3.3,14.9-5.7,1.7-11.3,3.4-16.7,5.2-48.9,17-78.1,43-78.1,69.6,0,13.9,8.1,28.1,23.5,41.3s34.8,23.3,58.8,31.4c3.9,1.3,8,2.6,12.2,3.8-1.3,5.5-2.5,10.8-3.5,16-9.7,50.8-1.7,89.1,21.3,102.3a42.6,42.6,0,0,0,21.5,5.3c8.2,0,16.7-1.7,26.1-5,18-6.3,37.5-18.5,56.6-35.2,3.1-2.7,6.3-5.6,9.4-8.6,4.1,3.9,8.1,7.6,12.2,11.1,28.8,24.8,56.5,37.9,78.2,37.9a41.9,41.9,0,0,0,21.1-5.3c12-6.9,20.3-21.1,24-41s2.7-41.7-2.2-66.6q-1.2-5.8-2.7-12l8.4-2.6c52.5-17.4,85.2-45.3,85.2-72.9C450,186,442,172.2,426.9,159.6ZM297.5,23.1c12.8-4.7,23.5-5.2,30-1.4S339.6,35.8,342,50.2c2.8,16.7,1.7,37.8-3.1,61.1-0.6,2.9-1.3,5.9-2,8.9a451.6,451.6,0,0,0-60.2-9.5,455.9,455.9,0,0,0-38-47.4c3.5-3.3,6.9-6.5,10.4-9.5C265.9,39.2,282.6,28.6,297.5,23.1Zm-9.6,213q-10.7,18.5-21.6,34.8c-13.4,1-27.2,1.5-41.2,1.5s-27.7-.4-40.7-1.3c-7.7-11.2-15.1-22.9-22-34.9h0c-7-12-13.4-24.1-19.2-36.2,5.8-12.2,12.2-24.3,19.1-36.3h0c6.9-12,14.2-23.6,21.8-34.7,13.5-1,27.2-1.6,41-1.6s27.6,0.5,41,1.5c7.4,11,14.7,22.5,21.7,34.6s13.6,24.3,19.4,36c-5.9,12.3-12.3,24.5-19.4,36.7h0.1Zm29.7-14.3a393.7,393.7,0,0,1,15.1,39.6,400.2,400.2,0,0,1-42,7.1c4.7-7.3,9.3-15,13.8-22.9s8.9-15.8,13-23.7h0.1ZM225.8,323.5c-9.1-9.8-18.2-20.7-27.1-32.4,8.5,0.3,17.3.5,26.3,0.5s18.1-.2,27.2-0.6A390.2,390.2,0,0,1,225.8,323.5Zm-66-54.5a389.7,389.7,0,0,1-41.5-6.7c4-12.8,8.9-26.2,14.6-39.7,4,7.7,8.2,15.5,12.7,23.2h0C150.2,253.7,154.9,261.5,159.8,269Zm-26.9-91.6a412.4,412.4,0,0,1-14.3-38.9c12.8-2.9,26.5-5.2,40.8-7-4.7,7.3-9.3,14.9-13.8,22.6h0c-4.5,7.8-8.7,15.6-12.7,23.3h0ZM225.3,77a403.6,403.6,0,0,1,26.5,31.9q-13.2-.6-26.7-0.6c-9,0-17.8.2-26.5,0.6,8.7-11.4,17.6-22.1,26.6-31.8h0.1Zm79.2,77c-4.5-7.7-9-15.2-13.7-22.5a405.7,405.7,0,0,1,41,7.2c-4.1,13.1-9,26-14.4,38.7-4.1-7.7-8.5-15.4-12.9-23.4h0ZM110.3,106.2c-4.3-21.9-5.1-41.7-2.5-57.2,2.3-13.4,7.2-22.9,13.7-26.7s18.3-3.4,32,1.6c15.9,5.9,33.7,17.4,51.5,33.2l6.8,6.2a458.7,458.7,0,0,0-38.3,47.4,469.1,469.1,0,0,0-60.1,9.3C112.2,115.3,111.2,110.7,110.3,106.2Zm-21.8,148c-21.7-7.4-39.8-17-52.5-27.9-10.8-9.3-16.8-18.8-16.8-26.7,0-19.9,32.7-40.1,65.2-51.4,4.9-1.7,10.1-3.3,15.5-4.9A457.9,457.9,0,0,0,121.8,200a456.5,456.5,0,0,0-22.2,57.6Zm33.3,123.7c-17.2-9.9-18.5-48.4-12-82.1,0.9-4.9,2-9.8,3.3-14.9a458.5,458.5,0,0,0,60.6,8.8,464.8,464.8,0,0,0,38.7,47.6c-2.9,2.7-5.7,5.4-8.6,7.9-37.9,33.1-69,40.1-81.9,32.7h-0.1Zm218.5-87c9.8,49.3.3,79.8-12.6,87.2-17.2,9.9-51.2-8.2-77.2-30.6-3.7-3.2-7.5-6.6-11.3-10.3a459,459,0,0,0,37.7-47.9,448.1,448.1,0,0,0,60.9-9.4c1,3.7,1.8,7.4,2.5,11h0Zm18.5-36.6-7.5,2.4a451.5,451.5,0,0,0-22.8-57,449.5,449.5,0,0,0,21.9-56.1c4.6,1.3,9.1,2.7,13.4,4.2,21.1,7.3,38.7,16.4,50.8,26.6,10.5,8.7,16.2,17.7,16.2,25.3,0,14.8-22.5,38.2-72,54.6h0Z" transform="translate(0.1 0.1)"/></svg>