<svg xmlns="http://www.w3.org/2000/svg" viewBox="0 0 533 399.5"><defs><style>.a{fill:#fff;}</style></defs><title>Sass-400H</title><path class="a" d="M458.9,229.8A110.7,110.7,0,0,0,410.6,241c-5-9.8-9.9-18.6-10.8-25s-2.1-12.1-1-21,6.4-21.7,6.3-22.7-1.2-5.5-11.9-5.6-20,2-21,4.9a110.6,110.6,0,0,0-4.5,15.9c-1.8,9.7-21.4,44.5-32.6,62.7-3.6-7.1-6.7-13.3-7.4-18.3-1-7.5-2.1-12.1-1-21s6.4-21.7,6.3-22.7-1.2-5.5-11.9-5.6-20,2-21,4.9-2.2,9.4-4.5,15.9-28.2,64.4-35,79.4c-3.5,7.7-6.5,13.8-8.7,18h0l-0.4.8-2.9,5.5h0c-1.5,2.6-3,5.1-3.8,5.1s-1.7-7,.2-16.6c3.9-20.2,13.1-51.5,13-52.6s1.8-6-6-8.9-10.3,1.8-11,1.8-1.2,1.7-1.2,1.7,8.5-35.2-16.2-35.2c-15.4,0-36.6,16.8-47.1,32L140.7,254l-17.2,9.4-1.2-1.3C92.7,230.2,37.6,207.8,39.9,165c0.9-15.6,6.2-56.5,105.8-106.1,82-40.4,147.2-29.2,158.5-4.4,16.2,35.4-35,101.2-119.6,110.8-32.3,3.6-49.3-8.9-53.5-13.5s-5.2-5.2-6.8-4.2-1,5.8,0,8.4c2.5,6.6,12.9,18.3,30.6,24,15.6,5.1,53.4,7.9,99.3-9.8,51.3-19.9,91.4-75.1,79.6-121.3S244.1-13.5,170.4,12.7c-43.8,15.6-91.3,40.1-125.5,72-40.6,38-47,71-44.4,84.8,9.4,49.1,77.1,81,104.2,104.7l-3.7,2c-13.5,6.7-65.1,33.7-78,62.2C8.4,370.7,25.3,393.9,36.5,397c34.8,9.6,70.5-7.7,89.7-36.3s16.8-65.8,8-82.8l-0.4-.6,10.6-6.2c6.9-4.1,13.7-7.9,19.6-11-3.3,9.1-5.7,19.9-6.9,35.4-1.5,18.3,6,42.1,15.9,51.4,4.4,4.1,9.5,4.2,12.9,4.2,11.5,0,16.6-9.5,22.4-20.8,7-13.8,13.3-29.9,13.3-29.9s-7.9,43.4,13.5,43.4c7.8,0,15.7-10.1,19.2-15.3h0l0.6-1,1.3-2v-0.2c3.1-5.5,10.1-17.8,20.5-38.4C290,260.5,303,227.4,303,227.4a172.7,172.7,0,0,0,5.2,21.5c2.3,7.9,7.2,16.6,11.1,24.9-3.1,4.4-5.1,6.8-5.1,6.8h0.1c-2.5,3.3-5.3,6.9-8.3,10.4-10.6,12.7-23.3,27.2-25,31.3s-1.6,8.6,2.3,11.5,7.9,2.4,13,2.1a60.2,60.2,0,0,0,19.6-4.5,63,63,0,0,0,16.8-8.9c10.4-7.7,16.7-18.7,16.2-33.2-0.3-8-2.9-16-6.1-23.5l2.8-4.1a443.1,443.1,0,0,0,29.2-50.4,172.7,172.7,0,0,0,5.2,21.5c1.9,6.8,5.9,14.2,9.4,21.4-15.5,12.6-25,27.2-28.4,36.7-6.1,17.7-1.4,25.7,7.7,27.6,4.1,0.9,9.9-1.1,14.2-2.9a65.2,65.2,0,0,0,18-9.2c10.4-7.7,20.4-18.4,19.9-32.9a62.2,62.2,0,0,0-4.5-19.5c13.1-5.5,30.1-8.5,51.7-5.9,46.3,5.5,55.5,34.4,53.7,46.5s-11.5,18.8-14.7,20.8-4.3,2.7-4,4.2,1.9,2,4.7,1.7,24.3-9.8,25.2-32.2C534.4,260.7,507.1,229.5,458.9,229.8ZM101.4,350.3C86.1,367,64.6,373.4,55.4,368s-6-30.5,12.9-48.2c11.5-10.8,26.3-20.8,36.1-27l9.5-5.7,1.1-.6h0l2.3-1.5C124.2,310.4,117.6,332.7,101.4,350.3Zm112-76.1c-5.4,13-16.6,46.4-23.4,44.6s-9.4-26.9-1.2-51.9c4.2-12.6,13-27.6,18.2-33.4,8.4-9.3,17.6-12.5,19.9-8.7s-10.2,41.2-13.5,49.4h0Zm92.4,44.2c-2.2,1.2-4.4,1.9-5.4,1.4s1-1.9,1-1.9,11.6-12.5,16.2-18.1l9.1-11.6v1.3c-0.1,14.7-14.5,24.8-20.9,28.8h0Zm71.3-16.3c-1.7-1.2-1.4-5.1,4.2-17.2,2.1-4.8,7.2-12.8,15.9-20.4a27.5,27.5,0,0,1,1.6,9c-0.2,18.7-13.7,25.7-21.7,28.6h0Z" transform="translate(0 -0.2)"/></svg>